<svg width="996" height="207" viewBox="0 0 996 207" fill="none" xmlns="http://www.w3.org/2000/svg">
<path d="M1.52588e-05 88.0012V1.48316H36.523C43.8152 1.48316 49.6037 2.82213 53.8884 5.50008C58.1731 8.13682 61.2424 11.5357 63.0964 15.6968C64.9504 19.8168 65.8773 24.1221 65.8773 28.6128C65.8773 31.7439 65.3212 34.9162 64.2088 38.1297C63.1376 41.3021 61.4278 44.2272 59.0795 46.9051C56.7723 49.5419 53.7442 51.6842 49.9951 53.3322C46.2872 54.939 41.7965 55.7424 36.523 55.7424H16.0059V88.0012H1.52588e-05ZM16.0059 40.6635H37.2646C40.2309 40.6635 42.5999 40.0661 44.3714 38.8713C46.1842 37.6354 47.4819 36.0904 48.2647 34.2364C49.0475 32.3825 49.4389 30.5079 49.4389 28.6128C49.4389 26.8824 49.0681 25.0902 48.3265 23.2363C47.6261 21.3411 46.3902 19.755 44.6186 18.4778C42.8471 17.2006 40.3957 16.562 37.2646 16.562H16.0059V40.6635Z" fill="#2C7A7B"/>
<path d="M124.444 89.4844C117.522 89.4844 111.652 88.1866 106.831 85.5911C102.011 82.9543 98.1176 79.473 95.1513 75.1471C92.2262 70.78 90.0838 65.9597 88.7242 60.6862C87.3647 55.4128 86.6849 50.0981 86.6849 44.7422C86.6849 39.3863 87.3647 34.0716 88.7242 28.7981C90.0838 23.5247 92.2262 18.725 95.1513 14.3991C98.1176 10.032 102.011 6.55065 106.831 3.95511C111.652 1.31837 117.522 0 124.444 0C131.365 0 137.216 1.31837 141.995 3.95511C146.815 6.55065 150.688 10.032 153.613 14.3991C156.579 18.725 158.721 23.5247 160.04 28.7981C161.399 34.0716 162.079 39.3863 162.079 44.7422C162.079 50.0981 161.399 55.4128 160.04 60.6862C158.721 65.9597 156.579 70.78 153.613 75.1471C150.688 79.473 146.815 82.9543 141.995 85.5911C137.216 88.1866 131.365 89.4844 124.444 89.4844ZM124.444 74.0965C128.317 74.0965 131.592 73.1901 134.27 71.3774C136.989 69.5646 139.173 67.1957 140.82 64.2706C142.468 61.3454 143.663 58.1731 144.405 54.7536C145.146 51.2929 145.517 47.9557 145.517 44.7422C145.517 41.2815 145.146 37.8207 144.405 34.36C143.704 30.8581 142.53 27.6858 140.882 24.843C139.275 21.9591 137.113 19.652 134.393 17.9216C131.715 16.15 128.399 15.2643 124.444 15.2643C120.448 15.2643 117.09 16.1706 114.371 17.9834C111.693 19.7962 109.53 22.1857 107.882 25.152C106.275 28.0772 105.101 31.2701 104.359 34.7308C103.659 38.1503 103.309 41.4875 103.309 44.7422C103.309 48.1617 103.659 51.6018 104.359 55.0626C105.101 58.5233 106.296 61.6956 107.944 64.5796C109.633 67.4635 111.816 69.7706 114.494 71.501C117.213 73.2314 120.53 74.0965 124.444 74.0965Z" fill="#2C7A7B"/>
<path d="M191.097 88.0012V1.48316H207.102V72.4898H248.94V88.0012H191.097Z" fill="#2C7A7B"/>
<path d="M273.463 88.0012V1.48316H289.468V88.0012H273.463Z" fill="#2C7A7B"/>
<path d="M355.333 89.3608C348.618 89.3608 342.932 88.063 338.277 85.4675C333.662 82.8719 329.934 79.4318 327.091 75.1471C324.29 70.8212 322.25 66.0215 320.973 60.748C319.696 55.4746 319.057 50.1393 319.057 44.7422C319.057 39.6335 319.696 34.463 320.973 29.2307C322.291 23.9573 324.372 19.1164 327.215 14.7081C330.099 10.2586 333.848 6.69485 338.462 4.0169C343.076 1.33897 348.7 0 355.333 0C360.813 0 365.571 0.926977 369.609 2.78093C373.646 4.59369 376.983 6.96264 379.62 9.88778C382.298 12.7717 384.337 15.7998 385.738 18.9722L371.401 25.6464C370 23.5041 368.558 21.6707 367.075 20.1463C365.592 18.5808 363.903 17.386 362.007 16.562C360.153 15.6968 357.929 15.2643 355.333 15.2643C351.625 15.2643 348.515 16.1706 346.002 17.9834C343.488 19.755 341.47 22.1033 339.945 25.0284C338.421 27.9536 337.329 31.1465 336.67 34.6072C336.011 38.0679 335.681 41.4463 335.681 44.7422C335.681 48.2441 336.052 51.7254 336.794 55.1862C337.535 58.6469 338.709 61.7986 340.316 64.6413C341.923 67.4841 343.962 69.7706 346.434 71.501C348.906 73.1902 351.872 74.0347 355.333 74.0347C359.041 74.0347 362.152 73.0048 364.665 70.9448C367.219 68.8437 369.485 66.1657 371.463 62.911L386.109 68.4111C384.255 72.4074 381.927 75.9917 379.126 79.164C376.324 82.3363 372.966 84.8289 369.052 86.6417C365.138 88.4544 360.565 89.3608 355.333 89.3608Z" fill="#2C7A7B"/>
<path d="M434.776 88.0012V54.2592L403.073 1.48316H421.119L442.686 37.5736L464.316 1.48316H482.237L450.658 54.1356V88.0012H434.776Z" fill="#2C7A7B"/>
<path d="M513.091 205.419V118.901H571V134.103H529.097V153.137H554.249V168.339H529.097V190.093H571V205.419H513.091Z" fill="#2C7A7B"/>
<path d="M599.624 205.419V118.901H614.579L648.692 169.823C649.145 170.564 649.722 171.574 650.422 172.851C651.164 174.087 651.782 175.22 652.276 176.25C652.153 175.343 652.05 174.251 651.967 172.974C651.926 171.656 651.906 170.605 651.906 169.823V118.901H667.85V205.419H653.574L618.782 154.126C618.328 153.425 617.731 152.437 616.989 151.159C616.289 149.882 615.692 148.729 615.197 147.699C615.321 148.729 615.403 149.841 615.444 151.036C615.486 152.231 615.506 153.261 615.506 154.126V205.419H599.624Z" fill="#2C7A7B"/>
<path d="M732.587 206.902C725.954 206.902 720.247 205.666 715.468 203.194C710.689 200.681 706.796 197.302 703.788 193.059C700.781 188.774 698.536 183.974 697.052 178.66C695.61 173.304 694.889 167.804 694.889 162.16C694.889 156.762 695.631 151.427 697.114 146.154C698.639 140.88 700.925 136.081 703.974 131.755C707.064 127.429 710.978 123.968 715.716 121.372C720.454 118.736 726.077 117.417 732.587 117.417C738.107 117.417 742.763 118.283 746.553 120.013C750.385 121.743 753.598 124.009 756.194 126.811C758.83 129.571 761.117 132.496 763.053 135.586L748.963 143.62C747.068 140.695 744.823 138.14 742.227 135.957C739.673 133.773 736.459 132.682 732.587 132.682C728.549 132.682 725.171 133.588 722.452 135.401C719.774 137.214 717.631 139.582 716.025 142.508C714.418 145.433 713.264 148.626 712.564 152.086C711.863 155.506 711.513 158.864 711.513 162.16C711.513 165.909 711.905 169.534 712.687 173.036C713.47 176.538 714.706 179.69 716.395 182.491C718.084 185.293 720.268 187.518 722.946 189.166C725.624 190.772 728.837 191.576 732.587 191.576C735.429 191.576 738.004 190.937 740.311 189.66C742.66 188.383 744.514 186.673 745.873 184.531C747.233 182.347 747.913 179.896 747.913 177.177V175.57H733.205V160.429H764.413V172.913C764.413 180.246 762.991 186.446 760.149 191.514C757.347 196.54 753.536 200.372 748.716 203.008C743.937 205.604 738.56 206.902 732.587 206.902Z" fill="#2C7A7B"/>
<path d="M792.363 205.419V118.901H808.369V205.419H792.363Z" fill="#2C7A7B"/>
<path d="M838.582 205.419V118.901H853.537L887.65 169.823C888.103 170.564 888.68 171.574 889.38 172.851C890.122 174.087 890.74 175.22 891.234 176.25C891.111 175.343 891.008 174.251 890.925 172.974C890.884 171.656 890.863 170.605 890.863 169.823V118.901H906.808V205.419H892.532L857.739 154.126C857.286 153.425 856.689 152.437 855.947 151.159C855.247 149.882 854.649 148.729 854.155 147.699C854.279 148.729 854.361 149.841 854.402 151.036C854.443 152.231 854.464 153.261 854.464 154.126V205.419H838.582Z" fill="#2C7A7B"/>
<path d="M936.943 205.419V118.901H995V134.103H952.949V153.137H978.101V168.339H952.949V190.093H995V205.419H936.943Z" fill="#2C7A7B"/>
<path fill-rule="evenodd" clip-rule="evenodd" d="M0.101146 118.901H482.13V134.35H0.101146V118.901Z" fill="#2C7A7B" fill-opacity="0.3"/>
<path fill-rule="evenodd" clip-rule="evenodd" d="M513.03 72.5516H995.059V88.0012H513.03V72.5516Z" fill="#2C7A7B" fill-opacity="0.3"/>
<path fill-rule="evenodd" clip-rule="evenodd" d="M482.13 134.35V205.419H466.681V134.35H482.13Z" fill="#2C7A7B" fill-opacity="0.3"/>
<path fill-rule="evenodd" clip-rule="evenodd" d="M528.479 1.48317L528.805 72.5516H513.03V1.48317H528.479Z" fill="#2C7A7B" fill-opacity="0.3"/>
<path d="M1.52588e-05 88.0012V1.48316H36.523C43.8152 1.48316 49.6037 2.82213 53.8884 5.50008C58.1731 8.13682 61.2424 11.5357 63.0964 15.6968C64.9504 19.8168 65.8773 24.1221 65.8773 28.6128C65.8773 31.7439 65.3212 34.9162 64.2088 38.1297C63.1376 41.3021 61.4278 44.2272 59.0795 46.9051C56.7723 49.5419 53.7442 51.6842 49.9951 53.3322C46.2872 54.939 41.7965 55.7424 36.523 55.7424H16.0059V88.0012H1.52588e-05ZM16.0059 40.6635H37.2646C40.2309 40.6635 42.5999 40.0661 44.3714 38.8713C46.1842 37.6354 47.4819 36.0904 48.2647 34.2364C49.0475 32.3825 49.4389 30.5079 49.4389 28.6128C49.4389 26.8824 49.0681 25.0902 48.3265 23.2363C47.6261 21.3411 46.3902 19.755 44.6186 18.4778C42.8471 17.2006 40.3957 16.562 37.2646 16.562H16.0059V40.6635Z" fill="#2C7A7B"/>
</svg>
