<svg xmlns="http://www.w3.org/2000/svg" width="1126" height="314" viewBox="0 0 1126 314" aria-hidden="true">
  <g fill="none" fill-rule="evenodd">
    <path fill="#0031FF" d="M305,160.779 C305,245.002 236.723,313.279 152.5,313.279 C68.277,313.279 0,245.002 0,160.779 C0,76.556 68.277,8.279 152.5,8.279 C236.723,8.279 305,76.556 305,160.779"/>
    <polygon fill="#FFFFFF" points="114.4 109.9 89 109.9 38.1 211.6 63.5 211.6 101.7 135.4 139.8 211.6 165.2 211.6"/>
    <polygon fill="#FFFFFF" points="190.6 211.6 216 211.6 266.9 109.9 241.5 109.9 203.3 186.2 165.2 109.9 139.8 109.9"/>
    <path fill="#000000" d="M1052.4846,302.1802 L1052.4846,276.6872 L1058.9056,276.6872 C1063.0596,293.1162 1072.6906,305.3912 1087.2306,305.3912 C1097.2396,305.3912 1104.9816,300.2922 1104.9816,289.9062 C1104.9816,279.7092 1097.9946,275.7432 1083.0766,270.8332 C1063.0596,264.0352 1052.6726,256.4802 1052.6726,238.9192 C1052.6726,220.0352 1067.0256,208.3272 1088.5536,208.3272 C1100.4496,208.3272 1110.6476,211.3482 1118.3896,216.0692 L1118.3896,239.1082 L1111.9706,239.1082 C1108.9486,225.6992 1101.2056,214.9362 1088.1756,214.9362 C1078.1666,214.9362 1072.5016,220.9792 1072.5016,229.0992 C1072.5016,237.7852 1078.3546,241.7512 1092.7076,246.8492 C1113.2896,253.6492 1125.1886,261.0142 1125.1886,279.5192 C1125.1886,299.7252 1110.0816,312.0002 1086.8526,312.0002 C1072.3126,312.0002 1060.4166,307.8452 1052.4846,302.1802 Z M979.2246,244.9622 L1016.2376,244.9622 C1016.2376,227.2102 1011.5156,215.3142 999.2416,215.3142 C987.1556,215.3142 980.7356,227.7782 979.2246,244.9622 Z M1000.1866,312.0002 C972.8036,312.0002 954.4866,291.7952 954.4866,262.7132 C954.4866,230.6102 975.2586,208.3272 1001.1306,208.3272 C1026.2446,208.3272 1039.4646,225.1332 1039.4646,247.7942 L1039.4646,252.8932 L978.8466,252.8932 C978.2796,278.5752 991.4996,294.0602 1009.4386,294.0602 C1021.9026,294.0602 1030.0226,288.5832 1036.6316,278.7642 L1040.4096,280.4642 C1035.4996,299.1582 1021.7146,312.0002 1000.1866,312.0002 Z M932.2116,310.1122 L878.2036,310.1122 L878.2036,303.8802 C887.0796,303.3142 890.1016,302.1802 890.1016,295.5712 L890.1016,228.7212 L878.7706,222.1122 L878.7706,218.7142 L912.1956,208.3272 L916.5376,208.3272 L915.5946,232.6872 C923.1476,215.5022 928.8136,208.3272 938.4446,208.3272 C942.0316,208.3272 945.0536,209.2712 946.1856,210.2162 L946.1856,233.0652 L939.0106,233.0652 C927.6806,233.0652 921.0706,235.3302 916.1616,239.6742 L916.1616,294.0602 C916.1616,301.8022 920.5036,302.9362 932.2116,303.8802 L932.2116,310.1122 Z M831.7616,288.0172 L831.7616,231.3662 C831.7616,225.1332 830.4406,222.3022 823.0746,220.7912 L820.2416,220.2232 L820.2416,214.5582 L854.6116,208.3272 L858.7656,208.3272 L858.0116,230.4212 L858.0116,290.0942 C858.0116,296.5152 858.3876,298.5922 865.5636,299.1582 L870.2856,299.5372 L870.2856,305.2012 L835.9166,312.0002 L831.1956,312.0002 L831.7616,295.0042 C823.8306,303.5022 813.2556,312.0002 797.5826,312.0002 C780.0206,312.0002 770.9556,301.9912 770.9556,281.7862 L770.9556,231.3662 C770.9556,225.1332 769.6336,222.1122 762.2686,220.7912 L759.2466,220.2232 L759.2466,214.5582 L793.9936,208.3272 L798.1486,208.3272 L797.2046,230.7992 L797.2046,280.2752 C797.2046,291.0392 801.3586,296.3272 811.3676,296.3272 C818.9206,296.3272 825.5306,293.1162 831.7616,288.0172 Z M741.3146,297.6482 C746.4126,297.6482 750.5666,296.7032 755.0996,293.6822 L757.5546,296.8932 C751.5116,305.9572 742.2586,312.0002 728.6626,312.0002 C713.1776,312.0002 701.8476,303.8802 701.8476,282.7302 L701.8476,220.2232 L690.1386,220.2232 L690.1386,215.8812 C703.1686,209.8382 714.3096,198.6962 722.4316,185.8542 L728.0956,185.8542 L728.0956,211.5372 L752.4556,211.5372 L752.4556,220.2232 L728.0956,220.2232 L728.0956,281.2192 C728.0956,292.7382 732.4386,297.6482 741.3146,297.6482 Z M645.7746,240.4302 C645.7746,229.4772 641.6206,224.0002 631.2336,224.0002 C623.4916,224.0002 616.6926,227.4002 610.2726,232.4982 L610.2726,295.5712 C610.2726,302.1802 613.1046,303.3142 621.7916,303.8802 L621.7916,310.1122 L572.3156,310.1122 L572.3156,303.8802 C581.1916,303.3142 584.2126,302.1802 584.2126,295.5712 L584.2126,228.7212 L572.8816,222.1122 L572.8816,218.7142 L606.6836,208.3272 L611.0276,208.3272 L610.2726,225.5112 C618.3926,217.0132 628.9686,208.3272 645.0196,208.3272 C662.7706,208.3272 672.0226,218.5242 672.0226,238.9192 L672.0226,295.5712 C672.0226,302.1802 675.0446,303.3142 683.7316,303.8802 L683.7316,310.1122 L634.2546,310.1122 L634.2546,303.8802 C642.9416,303.3142 645.7746,302.1802 645.7746,295.5712 L645.7746,240.4302 Z M500.9456,244.9622 L537.9586,244.9622 C537.9586,227.2102 533.2366,215.3142 520.9626,215.3142 C508.8766,215.3142 502.4566,227.7782 500.9456,244.9622 Z M521.9066,312.0002 C494.5246,312.0002 476.2076,291.7952 476.2076,262.7132 C476.2076,230.6102 496.9796,208.3272 522.8516,208.3272 C547.9676,208.3272 561.1856,225.1332 561.1856,247.7942 L561.1856,252.8932 L500.5676,252.8932 C500.0006,278.5752 513.2196,294.0602 531.1596,294.0602 C543.6236,294.0602 551.7436,288.5832 558.3526,278.7642 L562.1306,280.4642 C557.2196,299.1582 543.4336,312.0002 521.9066,312.0002 Z M426.1776,311.2442 L414.8466,311.2442 L366.1266,195.1082 C362.9156,187.1772 360.6506,185.2882 354.2296,184.5332 L354.2296,177.9232 L410.1256,177.9232 L410.1256,184.5332 C395.9626,184.9102 392.5636,189.2542 397.0956,200.0172 L429.9536,279.3312 L460.9236,201.7182 C465.4556,190.3872 463.0006,185.1002 447.1376,184.5332 L447.1376,177.9232 L487.7386,177.9232 L487.7386,184.5332 C479.8076,185.2882 475.8426,188.6872 469.7996,203.4172 L426.1776,311.2442 Z M909.3626,128.9782 C915.2156,128.9782 921.2586,126.1452 925.4146,121.2352 L925.4146,73.4592 C925.4146,58.7292 919.1816,50.2322 907.8516,50.2322 C892.1786,50.2322 882.9246,65.3392 882.9246,88.9432 C882.9246,111.9822 892.3666,128.9782 909.3626,128.9782 Z M929.5686,145.0302 L924.6586,145.0302 L925.4146,128.6002 C918.0486,138.4202 907.6626,145.0302 895.1996,145.0302 C872.1606,145.0302 857.0536,126.5232 857.0536,98.0072 C857.0536,62.3182 878.2036,42.1112 905.0186,42.1112 C913.7046,42.1112 920.8816,44.5662 925.4146,48.7202 L925.4146,18.8842 L914.0836,13.0302 L914.0836,9.0652 L947.5086,0.0002 L951.6626,0.0002 L951.6626,123.1232 C951.6626,129.5442 952.0396,131.6212 959.2166,132.1882 L963.7486,132.5662 L963.7486,138.2312 L929.5686,145.0302 Z M834.7786,128.6002 C834.7786,135.2092 837.8006,136.3422 846.4866,136.9092 L846.4866,143.1412 L797.0106,143.1412 L797.0106,136.9092 C805.6976,136.3422 808.7186,135.2092 808.7186,128.6002 L808.7186,18.8842 L797.3886,13.0302 L797.3886,9.0652 L830.6246,0.0002 L834.7786,0.0002 L834.7786,128.6002 Z M717.8986,88.9432 C717.8986,116.7042 724.5086,138.0422 739.4276,138.0422 C753.2116,138.0422 759.6326,122.3692 759.6326,97.4412 C759.6326,69.6822 753.0236,48.3432 738.1046,48.3432 C724.3196,48.3432 717.8986,64.0172 717.8986,88.9432 Z M787.3916,90.8322 C787.3916,123.1232 766.6196,145.0302 738.4826,145.0302 C709.5906,145.0302 690.1396,125.3902 690.1396,95.5542 C690.1396,63.2612 710.9116,41.3562 739.0486,41.3562 C767.9426,41.3562 787.3916,60.9962 787.3916,90.8322 Z M642.9426,73.4592 C642.9426,62.5062 638.7886,57.0302 628.4016,57.0302 C620.6596,57.0302 613.8606,60.4292 607.4416,65.5282 L607.4416,128.6002 C607.4416,135.2092 610.2726,136.3422 618.9596,136.9092 L618.9596,143.1412 L569.4836,143.1412 L569.4836,136.9092 C578.3596,136.3422 581.3806,135.2092 581.3806,128.6002 L581.3806,61.7502 L570.0496,55.1412 L570.0496,51.7422 L603.8516,41.3562 L608.1956,41.3562 L607.4416,58.5402 C615.5616,50.0422 626.1356,41.3562 642.1876,41.3562 C659.9386,41.3562 669.1916,51.5532 669.1916,71.9492 L669.1916,128.6002 C669.1916,135.2092 672.2126,136.3422 680.9006,136.9092 L680.9006,143.1412 L631.4226,143.1412 L631.4226,136.9092 C640.1096,136.3422 642.9426,135.2092 642.9426,128.6002 L642.9426,73.4592 Z M549.0976,143.1412 L495.0886,143.1412 L495.0886,136.9092 C503.9646,136.3422 506.9856,135.2092 506.9856,128.6002 L506.9856,61.7502 L495.6546,55.1412 L495.6546,51.7422 L529.0806,41.3562 L533.4226,41.3562 L532.4786,65.7162 C540.0326,48.5322 545.6976,41.3562 555.3286,41.3562 C558.9166,41.3562 561.9376,42.3012 563.0706,43.2452 L563.0706,66.0942 L555.8946,66.0942 C544.5636,66.0942 537.9546,68.3612 533.0456,72.7032 L533.0456,127.0892 C533.0456,134.8322 537.3886,135.9652 549.0976,136.9092 L549.0976,143.1412 Z M433.3526,89.6992 L412.2026,35.5022 L391.8086,89.6992 L433.3526,89.6992 Z M394.8306,143.1412 L354.2296,143.1412 L354.2296,136.5322 C362.1606,135.7752 366.1266,132.5662 371.7916,117.6472 L407.1046,25.1162 L401.4396,10.9532 L430.8976,10.9532 L476.0316,125.9572 C479.0526,133.6982 481.3176,135.7752 487.7386,136.5322 L487.7386,143.1412 L432.0306,143.1412 L432.0306,136.5322 C446.1946,136.1532 449.5926,131.8112 445.4386,121.0462 L436.5636,98.0072 L388.7876,98.0072 L380.6666,119.3472 C376.3236,130.6772 378.9666,135.9652 394.8306,136.5322 L394.8306,143.1412 Z"/>
  </g>
</svg>
